<svg xmlns="http://www.w3.org/2000/svg" width="1200" height="630" viewBox="0 0 1200 630">
<rect width="1200" height="630" fill="#101225"/>
<rect x="330" y="110" width="540" height="380" fill="#4A90D9" stroke="#F5F0E6" stroke-width="8" transform="rotate(4 600 300)" /><rect x="268" y="168" width="240" height="60" fill="#101225" />
<rect x="260" y="160" width="240" height="60" fill="#E8D44D" stroke="#101225" stroke-width="4" /><text x="380" y="195" font-family="Menlo, monospace" font-size="20" fill="#101225" text-anchor="middle" >blog-ops/</text><line x1="380" y1="220" x2="380" y2="250" stroke="#F5F0E6" stroke-width="4" /><line x1="280" y1="250" x2="480" y2="250" stroke="#F5F0E6" stroke-width="4" /><rect x="228" y="268" width="120" height="50" fill="#101225" />
<rect x="220" y="260" width="120" height="50" fill="#F5F0E6" stroke="#101225" stroke-width="3" /><rect x="378" y="268" width="120" height="50" fill="#101225" />
<rect x="370" y="260" width="120" height="50" fill="#F5F0E6" stroke="#101225" stroke-width="3" /><rect x="528" y="268" width="120" height="50" fill="#101225" />
<rect x="520" y="260" width="120" height="50" fill="#F5F0E6" stroke="#101225" stroke-width="3" /><text x="280" y="288" font-family="Menlo, monospace" font-size="14" fill="#101225" text-anchor="middle" >SKILL.md</text><text x="430" y="288" font-family="Menlo, monospace" font-size="14" fill="#101225" text-anchor="middle" >new-post</text><text x="580" y="288" font-family="Menlo, monospace" font-size="14" fill="#101225" text-anchor="middle" >check.py</text><line x1="280" y1="250" x2="280" y2="260" stroke="#F5F0E6" stroke-width="4" /><line x1="430" y1="250" x2="430" y2="260" stroke="#F5F0E6" stroke-width="4" /><line x1="580" y1="250" x2="580" y2="260" stroke="#F5F0E6" stroke-width="4" /><circle cx="340" cy="285" r="10" fill="#E8D44D" stroke="#101225" stroke-width="2" /><polyline points="334,283 338,288 346,280" fill="none" stroke="#101225" stroke-width="2" /><circle cx="490" cy="285" r="10" fill="#E8D44D" stroke="#101225" stroke-width="2" /><polyline points="484,283 488,288 496,280" fill="none" stroke="#101225" stroke-width="2" /><circle cx="640" cy="285" r="10" fill="#E8D44D" stroke="#101225" stroke-width="2" /><polyline points="634,283 638,288 646,280" fill="none" stroke="#101225" stroke-width="2" /><text x="60" y="540" font-family="Hiragino Sans, sans-serif" font-size="40" fill="#F5F0E6" text-anchor="start" >ブログ運用の暗黙知を</text><text x="60" y="580" font-family="Hiragino Sans, sans-serif" font-size="24" fill="#6B7B8E" text-anchor="start" >AIエージェントのスキルと検査スクリプトに書き下した話</text><text x="1140" y="40" font-family="Menlo, monospace" font-size="16" fill="#6B7B8E" text-anchor="end" >j1nn0 lab</text>
</svg>