<svg xmlns="http://www.w3.org/2000/svg" width="1200" height="630" viewBox="0 0 1200 630">
<rect width="1200" height="630" fill="#101225"/>
<rect x="330" y="110" width="540" height="380" fill="#C45B3A" stroke="#F5F0E6" stroke-width="8" transform="rotate(5 600 300)" />
<rect x="158" y="188" width="340" height="260" fill="#101225" />
<rect x="150" y="180" width="340" height="260" fill="#1A1F3A" stroke="#F5F0E6" stroke-width="5" />
<text x="320" y="222" font-family="Hiragino Sans, sans-serif" font-size="22" fill="#F5F0E6" text-anchor="middle" font-weight="bold">HOST (macOS)</text>
<text x="320" y="282" font-family="Menlo, monospace" font-size="32" fill="#F5F0E6" text-anchor="middle" font-weight="bold">Zed</text>
<text x="320" y="330" font-family="Menlo, monospace" font-size="18" fill="#9AA5B8" text-anchor="middle">devcontainer exec</text>
<rect x="718" y="188" width="340" height="260" fill="#101225" />
<rect x="710" y="180" width="340" height="260" fill="#4A90D9" stroke="#F5F0E6" stroke-width="5" />
<text x="880" y="222" font-family="Hiragino Sans, sans-serif" font-size="22" fill="#F5F0E6" text-anchor="middle" font-weight="bold">CONTAINER (Linux)</text>
<text x="880" y="288" font-family="Menlo, monospace" font-size="22" fill="#F5F0E6" text-anchor="middle">node_modules/oxfmt</text>
<text x="880" y="318" font-family="Menlo, monospace" font-size="22" fill="#F5F0E6" text-anchor="middle">node_modules/oxlint</text>
<line x1="558" y1="200" x2="558" y2="430" stroke="#F5F0E6" stroke-width="10" />
<line x1="588" y1="200" x2="588" y2="430" stroke="#F5F0E6" stroke-width="10" />
<line x1="618" y1="200" x2="618" y2="430" stroke="#F5F0E6" stroke-width="10" />
<line x1="648" y1="200" x2="648" y2="430" stroke="#F5F0E6" stroke-width="10" />
<line x1="558" y1="262" x2="648" y2="262" stroke="#101225" stroke-width="4" />
<line x1="558" y1="342" x2="648" y2="342" stroke="#101225" stroke-width="4" />
<line x1="498" y1="312" x2="700" y2="312" stroke="#4A90D9" stroke-width="9" stroke-linecap="round" />
<polygon points="700,296 700,328 726,312" fill="#4A90D9" />
<text x="603" y="465" font-family="Hiragino Sans, sans-serif" font-size="18" fill="#F5F0E6" text-anchor="middle" font-weight="bold">devcontainer exec越しで解決</text>
<text x="60" y="530" font-family="Hiragino Sans, sans-serif" font-size="34" fill="#F5F0E6" text-anchor="start">ZedからDocker内のoxfmtを使おうとして</text>
<text x="60" y="575" font-family="Hiragino Sans, sans-serif" font-size="24" fill="#6B7B8E" text-anchor="start">macOSとLinuxの壁にぶつかった</text>
<text x="1140" y="40" font-family="Menlo, monospace" font-size="16" fill="#6B7B8E" text-anchor="end">j1nn0 lab</text>
</svg>
