<svg xmlns="http://www.w3.org/2000/svg" width="1200" height="630" viewBox="0 0 1200 630">
<rect width="1200" height="630" fill="#101225"/>
<rect x="330" y="110" width="540" height="380" fill="#E8D44D" stroke="#F5F0E6" stroke-width="8" transform="rotate(6 600 300)" /><rect x="188" y="228" width="200" height="100" fill="#101225" />
<rect x="180" y="220" width="200" height="100" fill="#1A1F3A" stroke="#F5F0E6" stroke-width="5" /><rect x="508" y="228" width="200" height="100" fill="#101225" />
<rect x="500" y="220" width="200" height="100" fill="#1A1F3A" stroke="#F5F0E6" stroke-width="5" /><rect x="828" y="228" width="200" height="100" fill="#101225" />
<rect x="820" y="220" width="200" height="100" fill="#1A1F3A" stroke="#F5F0E6" stroke-width="5" /><text x="280" y="270" font-family="Hiragino Sans, sans-serif" font-size="48" fill="#F5F0E6" text-anchor="middle" font-weight="bold">あ</text><text x="600" y="270" font-family="Hiragino Sans, sans-serif" font-size="48" fill="#F5F0E6" text-anchor="middle" font-weight="bold">ア</text><text x="920" y="270" font-family="Hiragino Sans, sans-serif" font-size="48" fill="#F5F0E6" text-anchor="middle" font-weight="bold">ｱ</text><line x1="390" y1="270" x2="490" y2="270" stroke="#101225" stroke-width="5" /><line x1="710" y1="270" x2="810" y2="270" stroke="#101225" stroke-width="5" /><polygon points="485,260 485,280 500,270" fill="#101225" /><polygon points="805,260 805,280 820,270" fill="#101225" /><text x="600" y="380" font-family="Hiragino Sans, sans-serif" font-size="24" fill="#101225" text-anchor="middle" >IME追跡 → 半角カナ</text><text x="60" y="540" font-family="Hiragino Sans, sans-serif" font-size="40" fill="#F5F0E6" text-anchor="start" >vanilla-autokanaをフォークして</text><text x="60" y="580" font-family="Hiragino Sans, sans-serif" font-size="24" fill="#6B7B8E" text-anchor="start" >半角カナとIME追跡に対応した話</text><text x="1140" y="40" font-family="Menlo, monospace" font-size="16" fill="#6B7B8E" text-anchor="end" >j1nn0 lab</text>
</svg>