<svg xmlns="http://www.w3.org/2000/svg" width="1200" height="630" viewBox="0 0 1200 630">
<rect width="1200" height="630" fill="#101225"/>
<rect x="330" y="110" width="540" height="380" fill="#E8D44D" stroke="#F5F0E6" stroke-width="8" transform="rotate(6 600 300)" /><rect x="188" y="188" width="360" height="260" fill="#101225" />
<rect x="180" y="180" width="360" height="260" fill="#1A1F3A" stroke="#F5F0E6" stroke-width="5" /><text x="360" y="220" font-family="Menlo, monospace" font-size="20" fill="#F5F0E6" text-anchor="middle" >HOST</text><rect x="300" y="260" width="120" height="60" fill="#F5F0E6" stroke="#101225" stroke-width="3" /><rect x="340" y="240" width="40" height="20" fill="#F5F0E6" stroke="#101225" stroke-width="3" /><circle cx="340" cy="290" r="6" fill="#101225" /><circle cx="380" cy="290" r="6" fill="#101225" /><rect x="628" y="208" width="400" height="240" fill="#101225" />
<rect x="620" y="200" width="400" height="240" fill="#4A90D9" stroke="#F5F0E6" stroke-width="5" /><text x="820" y="240" font-family="Menlo, monospace" font-size="20" fill="#F5F0E6" text-anchor="middle" >CONTAINER</text><text x="720" y="300" font-family="Menlo, monospace" font-size="18" fill="#F5F0E6" text-anchor="middle" >php</text><text x="820" y="300" font-family="Menlo, monospace" font-size="18" fill="#F5F0E6" text-anchor="middle" >node</text><text x="920" y="300" font-family="Menlo, monospace" font-size="18" fill="#F5F0E6" text-anchor="middle" >pnpm</text><line x1="550" y1="310" x2="610" y2="310" stroke="#F5F0E6" stroke-width="6" /><polygon points="600,300 600,320 615,310" fill="#F5F0E6" /><text x="580" y="295" font-family="Menlo, monospace" font-size="14" fill="#F5F0E6" text-anchor="middle" >exec</text><text x="60" y="540" font-family="Hiragino Sans, sans-serif" font-size="40" fill="#F5F0E6" text-anchor="start" >AIエージェントをコンテナに入れず</text><text x="60" y="580" font-family="Hiragino Sans, sans-serif" font-size="24" fill="#6B7B8E" text-anchor="start" >devcontainer execで動かしている話</text><text x="1140" y="40" font-family="Menlo, monospace" font-size="16" fill="#6B7B8E" text-anchor="end" >j1nn0 lab</text>
</svg>