<svg xmlns="http://www.w3.org/2000/svg" width="1200" height="630" viewBox="0 0 1200 630">
<rect width="1200" height="630" fill="#101225"/>
<rect x="330" y="110" width="540" height="380" fill="#4A90D9" stroke="#F5F0E6" stroke-width="8" transform="rotate(4 600 300)" /><rect x="228" y="208" width="180" height="240" fill="#101225" />
<rect x="220" y="200" width="180" height="240" fill="#F5F0E6" stroke="#101225" stroke-width="5" /><rect x="240" y="230" width="140" height="10" fill="#101225" /><rect x="240" y="250" width="120" height="10" fill="#101225" /><rect x="240" y="270" width="130" height="10" fill="#101225" /><rect x="240" y="290" width="110" height="10" fill="#101225" /><rect x="240" y="330" width="140" height="10" fill="#101225" /><rect x="240" y="350" width="120" height="10" fill="#101225" /><text x="310" y="410" font-family="Menlo, monospace" font-size="18" fill="#101225" text-anchor="middle" >PDF</text><line x1="420" y1="320" x2="520" y2="320" stroke="#F5F0E6" stroke-width="5" /><polygon points="510,310 510,330 525,320" fill="#F5F0E6" /><line x1="620" y1="250" x2="680" y2="320" stroke="#F5F0E6" stroke-width="3" /><line x1="620" y1="250" x2="720" y2="220" stroke="#F5F0E6" stroke-width="3" /><line x1="720" y1="220" x2="780" y2="300" stroke="#F5F0E6" stroke-width="3" /><line x1="680" y1="320" x2="620" y2="380" stroke="#F5F0E6" stroke-width="3" /><line x1="680" y1="320" x2="780" y2="300" stroke="#F5F0E6" stroke-width="3" /><circle cx="620" cy="250" r="18" fill="#E8D44D" stroke="#101225" stroke-width="3" /><circle cx="720" cy="220" r="18" fill="#C45B3A" stroke="#101225" stroke-width="3" /><circle cx="680" cy="320" r="18" fill="#F5F0E6" stroke="#101225" stroke-width="3" /><circle cx="780" cy="300" r="18" fill="#4A90D9" stroke="#101225" stroke-width="3" /><circle cx="620" cy="380" r="18" fill="#E8D44D" stroke="#101225" stroke-width="3" /><text x="60" y="540" font-family="Hiragino Sans, sans-serif" font-size="40" fill="#F5F0E6" text-anchor="start" >AIで技術文書を</text><text x="60" y="580" font-family="Hiragino Sans, sans-serif" font-size="24" fill="#6B7B8E" text-anchor="start" >Obsidianノートに変換している話</text><text x="1140" y="40" font-family="Menlo, monospace" font-size="16" fill="#6B7B8E" text-anchor="end" >j1nn0 lab</text>
</svg>