<svg xmlns="http://www.w3.org/2000/svg" width="1200" height="630" viewBox="0 0 1200 630">
<rect width="1200" height="630" fill="#101225"/>
<rect x="330" y="110" width="540" height="380" fill="#C45B3A" stroke="#F5F0E6" stroke-width="8" transform="rotate(-5 600 300)" /><rect x="340" y="170" width="42" height="38" rx="4" fill="#1A1F3A" stroke="#F5F0E6" stroke-width="3" /><rect x="392" y="170" width="42" height="38" rx="4" fill="#1A1F3A" stroke="#F5F0E6" stroke-width="3" /><rect x="444" y="170" width="42" height="38" rx="4" fill="#1A1F3A" stroke="#F5F0E6" stroke-width="3" /><rect x="496" y="170" width="42" height="38" rx="4" fill="#1A1F3A" stroke="#F5F0E6" stroke-width="3" /><rect x="548" y="170" width="42" height="38" rx="4" fill="#1A1F3A" stroke="#F5F0E6" stroke-width="3" /><rect x="600" y="170" width="42" height="38" rx="4" fill="#1A1F3A" stroke="#F5F0E6" stroke-width="3" /><rect x="652" y="170" width="42" height="38" rx="4" fill="#1A1F3A" stroke="#F5F0E6" stroke-width="3" /><rect x="704" y="170" width="42" height="38" rx="4" fill="#F5F0E6" stroke="#F5F0E6" stroke-width="3" /><rect x="756" y="170" width="42" height="38" rx="4" fill="#1A1F3A" stroke="#F5F0E6" stroke-width="3" /><rect x="808" y="170" width="42" height="38" rx="4" fill="#1A1F3A" stroke="#F5F0E6" stroke-width="3" /><rect x="340" y="218" width="42" height="38" rx="4" fill="#1A1F3A" stroke="#F5F0E6" stroke-width="3" /><rect x="392" y="218" width="42" height="38" rx="4" fill="#1A1F3A" stroke="#F5F0E6" stroke-width="3" /><rect x="444" y="218" width="42" height="38" rx="4" fill="#E8D44D" stroke="#F5F0E6" stroke-width="3" /><rect x="496" y="218" width="42" height="38" rx="4" fill="#1A1F3A" stroke="#F5F0E6" stroke-width="3" /><rect x="548" y="218" width="42" height="38" rx="4" fill="#1A1F3A" stroke="#F5F0E6" stroke-width="3" /><rect x="600" y="218" width="42" height="38" rx="4" fill="#1A1F3A" stroke="#F5F0E6" stroke-width="3" /><rect x="652" y="218" width="42" height="38" rx="4" fill="#1A1F3A" stroke="#F5F0E6" stroke-width="3" /><rect x="704" y="218" width="42" height="38" rx="4" fill="#1A1F3A" stroke="#F5F0E6" stroke-width="3" /><rect x="756" y="218" width="42" height="38" rx="4" fill="#1A1F3A" stroke="#F5F0E6" stroke-width="3" /><rect x="808" y="218" width="42" height="38" rx="4" fill="#1A1F3A" stroke="#F5F0E6" stroke-width="3" /><rect x="340" y="266" width="42" height="38" rx="4" fill="#1A1F3A" stroke="#F5F0E6" stroke-width="3" /><rect x="392" y="266" width="42" height="38" rx="4" fill="#1A1F3A" stroke="#F5F0E6" stroke-width="3" /><rect x="444" y="266" width="42" height="38" rx="4" fill="#1A1F3A" stroke="#F5F0E6" stroke-width="3" /><rect x="496" y="266" width="42" height="38" rx="4" fill="#1A1F3A" stroke="#F5F0E6" stroke-width="3" /><rect x="548" y="266" width="42" height="38" rx="4" fill="#1A1F3A" stroke="#F5F0E6" stroke-width="3" /><rect x="600" y="266" width="42" height="38" rx="4" fill="#4A90D9" stroke="#F5F0E6" stroke-width="3" /><rect x="652" y="266" width="42" height="38" rx="4" fill="#1A1F3A" stroke="#F5F0E6" stroke-width="3" /><rect x="704" y="266" width="42" height="38" rx="4" fill="#1A1F3A" stroke="#F5F0E6" stroke-width="3" /><rect x="756" y="266" width="42" height="38" rx="4" fill="#1A1F3A" stroke="#F5F0E6" stroke-width="3" /><rect x="808" y="266" width="42" height="38" rx="4" fill="#1A1F3A" stroke="#F5F0E6" stroke-width="3" /><rect x="340" y="314" width="42" height="38" rx="4" fill="#1A1F3A" stroke="#F5F0E6" stroke-width="3" /><rect x="392" y="314" width="42" height="38" rx="4" fill="#1A1F3A" stroke="#F5F0E6" stroke-width="3" /><rect x="444" y="314" width="42" height="38" rx="4" fill="#1A1F3A" stroke="#F5F0E6" stroke-width="3" /><rect x="496" y="314" width="42" height="38" rx="4" fill="#1A1F3A" stroke="#F5F0E6" stroke-width="3" /><rect x="548" y="314" width="42" height="38" rx="4" fill="#1A1F3A" stroke="#F5F0E6" stroke-width="3" /><rect x="600" y="314" width="42" height="38" rx="4" fill="#1A1F3A" stroke="#F5F0E6" stroke-width="3" /><rect x="652" y="314" width="42" height="38" rx="4" fill="#1A1F3A" stroke="#F5F0E6" stroke-width="3" /><rect x="704" y="314" width="42" height="38" rx="4" fill="#1A1F3A" stroke="#F5F0E6" stroke-width="3" /><rect x="756" y="314" width="42" height="38" rx="4" fill="#1A1F3A" stroke="#F5F0E6" stroke-width="3" /><rect x="808" y="314" width="42" height="38" rx="4" fill="#1A1F3A" stroke="#F5F0E6" stroke-width="3" /><rect x="860" y="170" width="50" height="126" rx="4" fill="#E8D44D" stroke="#101225" stroke-width="4" /><text x="885" y="235" font-family="Menlo, monospace" font-size="20" fill="#101225" text-anchor="middle" >Fn</text><text x="60" y="540" font-family="Hiragino Sans, sans-serif" font-size="40" fill="#F5F0E6" text-anchor="start" >Vortex Keyboard M0110</text><text x="60" y="580" font-family="Hiragino Sans, sans-serif" font-size="24" fill="#6B7B8E" text-anchor="start" >VIAキーマップ</text><text x="1140" y="40" font-family="Menlo, monospace" font-size="16" fill="#6B7B8E" text-anchor="end" >j1nn0 lab</text>
</svg>