<svg xmlns="http://www.w3.org/2000/svg" width="1200" height="630" viewBox="0 0 1200 630">
<rect width="1200" height="630" fill="#101225"/>
<rect x="330" y="110" width="540" height="380" fill="#E8D44D" stroke="#F5F0E6" stroke-width="8" transform="rotate(6 600 300)" /><path d="M 300,380 L 300,280 L 450,280 L 450,200" stroke="#F5F0E6" stroke-width="5" fill="none" /><path d="M 300,280 L 450,280 L 450,360" stroke="#F5F0E6" stroke-width="5" fill="none" /><circle cx="300" cy="380" r="16" fill="#1A1F3A" stroke="#F5F0E6" stroke-width="4" /><circle cx="300" cy="280" r="16" fill="#1A1F3A" stroke="#F5F0E6" stroke-width="4" /><circle cx="450" cy="280" r="16" fill="#1A1F3A" stroke="#F5F0E6" stroke-width="4" /><circle cx="450" cy="200" r="16" fill="#C45B3A" stroke="#F5F0E6" stroke-width="4" /><circle cx="450" cy="360" r="16" fill="#1A1F3A" stroke="#F5F0E6" stroke-width="4" /><line x1="450" y1="170" x2="450" y2="185" stroke="#C45B3A" stroke-width="4" /><line x1="450" y1="215" x2="450" y2="230" stroke="#C45B3A" stroke-width="4" /><line x1="420" y1="200" x2="435" y2="200" stroke="#C45B3A" stroke-width="4" /><line x1="465" y1="200" x2="480" y2="200" stroke="#C45B3A" stroke-width="4" /><text x="300" y="410" font-family="Menlo, monospace" font-size="16" fill="#F5F0E6" text-anchor="middle" >main</text><text x="450" y="390" font-family="Menlo, monospace" font-size="16" fill="#F5F0E6" text-anchor="middle" >feat</text><text x="450" y="170" font-family="Menlo, monospace" font-size="14" fill="#F5F0E6" text-anchor="middle" >AI</text><text x="700" y="280" font-family="Menlo, monospace" font-size="28" fill="#101225" text-anchor="middle" >Lazygit</text><text x="700" y="320" font-family="Menlo, monospace" font-size="24" fill="#101225" text-anchor="middle" >×</text><text x="700" y="360" font-family="Menlo, monospace" font-size="28" fill="#101225" text-anchor="middle" >aicommit2</text><text x="60" y="540" font-family="Hiragino Sans, sans-serif" font-size="40" fill="#F5F0E6" text-anchor="start" >Lazygit × aicommit2</text><text x="60" y="580" font-family="Hiragino Sans, sans-serif" font-size="24" fill="#6B7B8E" text-anchor="start" >AIコミットメッセージ生成を組み込む</text><text x="1140" y="40" font-family="Menlo, monospace" font-size="16" fill="#6B7B8E" text-anchor="end" >j1nn0 lab</text>
</svg>