<svg xmlns="http://www.w3.org/2000/svg" width="1200" height="630" viewBox="0 0 1200 630">
<rect width="1200" height="630" fill="#101225"/>
<rect x="330" y="110" width="540" height="380" fill="#C45B3A" stroke="#F5F0E6" stroke-width="8" transform="rotate(-5 600 300)" /><rect x="308" y="168" width="600" height="280" fill="#101225" />
<rect x="300" y="160" width="600" height="280" fill="#1A1F3A" stroke="#F5F0E6" stroke-width="5" /><rect x="300" y="160" width="600" height="40" fill="#F5F0E6" /><circle cx="330" cy="180" r="8" fill="#C45B3A" /><circle cx="360" cy="180" r="8" fill="#E8D44D" /><circle cx="390" cy="180" r="8" fill="#4A90D9" /><text x="330" y="240" font-family="Menlo, monospace" font-size="22" fill="#F5F0E6" text-anchor="start" >$ brew update</text><text x="330" y="275" font-family="Menlo, monospace" font-size="18" fill="#6B7B8E" text-anchor="start" >[brew] Running update in background...</text><text x="330" y="310" font-family="Menlo, monospace" font-size="18" fill="#E8D44D" text-anchor="start" >3 outdated formulae found</text><rect x="760" y="240" width="120" height="60" rx="12" fill="#E8D44D" stroke="#101225" stroke-width="4" /><text x="820" y="275" font-family="Menlo, monospace" font-size="36" fill="#101225" text-anchor="middle" >1</text><polygon points="820,120 800,160 840,160" fill="#F5F0E6" /><rect x="805" y="160" width="30" height="10" fill="#F5F0E6" /><text x="60" y="540" font-family="Hiragino Sans, sans-serif" font-size="40" fill="#F5F0E6" text-anchor="start" >ターミナル起動を1秒も遅くせず</text><text x="60" y="580" font-family="Hiragino Sans, sans-serif" font-size="24" fill="#6B7B8E" text-anchor="start" >Homebrewを裏で安全に自動更新する</text><text x="1140" y="40" font-family="Menlo, monospace" font-size="16" fill="#6B7B8E" text-anchor="end" >j1nn0 lab</text>
</svg>